<svg width="16" height="16" viewBox="0 0 16 16" fill="none" xmlns="http://www.w3.org/2000/svg">
<g clip-path="url(#clip0_2341_1782)">
<path d="M15.6671 4.33797C15.5765 4.01479 15.4 3.7222 15.1564 3.4913C14.9059 3.25331 14.5989 3.08306 14.2644 2.99664C13.0124 2.66664 7.99641 2.66664 7.99641 2.66664C5.9053 2.64284 3.8147 2.74749 1.73641 2.97997C1.40187 3.07278 1.09545 3.24683 0.844411 3.48664C0.597745 3.72397 0.419078 4.01664 0.325745 4.3373C0.10154 5.54513 -0.00739387 6.77153 0.000411455 7.99997C-0.00758854 9.2273 0.101078 10.4533 0.325745 11.6626C0.417078 11.982 0.595078 12.2733 0.842411 12.5086C1.08974 12.744 1.39774 12.914 1.73641 13.004C3.00508 13.3333 7.99641 13.3333 7.99641 13.3333C10.0902 13.3571 12.1835 13.2525 14.2644 13.02C14.5989 12.9335 14.9059 12.7633 15.1564 12.5253C15.4031 12.29 15.5784 11.9973 15.6664 11.6786C15.8965 10.4713 16.0083 9.24436 16.0004 8.0153C16.0177 6.78104 15.906 5.54835 15.6671 4.3373V4.33797ZM6.40174 10.2826V5.71797L10.5751 8.00064L6.40174 10.2826Z" fill="#9CA0AB"/>
</g>
<defs>
<clipPath id="clip0_2341_1782">
<rect width="16" height="16" fill="white"/>
</clipPath>
</defs>
</svg>
