<svg width="28" height="26" viewBox="0 0 28 26" fill="none" xmlns="http://www.w3.org/2000/svg">
<path d="M3.41358 3.5856L3.4127 3.58654C0.529118 6.69668 0.529118 11.5035 3.41265 14.6136L3.41828 14.6197L3.41832 14.6197L12.8308 24.5493C12.8308 24.5493 12.8308 24.5493 12.8308 24.5493C12.8508 24.5705 12.8715 24.5911 12.8926 24.6112C12.8927 24.6112 12.8928 24.6113 12.8928 24.6114L13.4084 24.0667C13.7523 24.3924 14.2952 24.3777 14.6209 24.0338L3.41358 3.5856ZM3.41358 3.5856C4.79655 2.09909 6.73448 1.25328 8.76485 1.25014L8.76688 1.25014C10.7381 1.25242 12.6227 2.04815 13.9981 3.45325C16.7606 0.621999 21.2931 0.497972 24.2071 3.20552L24.2072 3.20562C24.3381 3.32734 24.4647 3.45387 24.5867 3.58511L24.5872 3.5857C27.4709 6.69614 27.4709 11.5032 24.5872 14.6136L24.5872 14.6137L24.5814 14.6198L15.1654 24.5496L3.41358 3.5856Z" stroke="#616575" stroke-width="1.5"/>
</svg>
