<svg width="24" height="23" viewBox="0 0 24 23" fill="none" xmlns="http://www.w3.org/2000/svg">
<path d="M12.6209 22.0338C12.2952 22.3777 11.7523 22.3924 11.4084 22.0667C11.3971 22.056 11.3861 22.045 11.3755 22.0338H12.6209ZM12.6209 22.0338L22.0372 12.1037L12.6209 22.0338ZM2.32747 11.7618C-0.10957 9.13122 -0.109156 5.06714 2.32875 2.43704L2.32747 11.7618ZM2.32747 11.7618L11.7384 21.6898L11.7386 21.6901C11.743 21.6947 11.7474 21.6991 11.752 21.7035L11.7522 21.7037C11.8956 21.8395 12.1221 21.8334 12.2579 21.6899L12.2581 21.6897L21.6725 11.7617C24.1097 9.13072 24.1092 5.06618 21.6708 2.43581C21.5699 2.3272 21.465 2.22231 21.3562 2.12125L2.32747 11.7618ZM11.2113 2.43929L11.2114 2.43928L11.6351 2.88703L11.9982 3.27078L12.3614 2.88703L12.7851 2.43928L12.7883 2.43596L12.7883 2.43594C15.0673 -0.0169234 18.9033 -0.157813 21.3562 2.12118L11.2113 2.43929ZM11.2113 2.43929L11.2087 2.43643M11.2113 2.43929L11.2087 2.43643M11.2087 2.43643C10.06 1.20342 8.45124 0.502279 6.76612 0.50014M11.2087 2.43643L6.76612 0.50014M6.76612 0.50014C5.08279 0.502924 3.47613 1.20412 2.32934 2.43641L6.76612 0.50014Z" fill="#616575" stroke="#616575"/>
</svg>
